<svg xmlns="http://www.w3.org/2000/svg" viewBox="0 0 512 512">
  <path fill="#22c55e" d="M374.3 0c-44.5 0-108.9 23-176 90-84.6 84.6-118 200.7-101.4 300.9l-74.3 74.3c-12.5 12.5-12.5 32.8 0 45.3s32.8 12.5 45.3 0l74.3-74.3c100.2 16.5 216.2-16.8 300.9-101.4C510.3 267.4 512 119.5 512 0H374.3z"/>
  <path fill="#16a34a" d="M110.1 391.6l-3.3-3.3C96 377.5 96 359 106.8 348.1L276.5 178.5C335 120 374.3 0 374.3 0s119.5 39.3 178.5 97.8L383.1 267.5c-10.8 10.8-29.4 10.8-40.2 0l-3.3-3.3-119.5 119.5c-10.8 10.8-10.8 29.4 0 40.2l3.3 3.3L110.1 391.6z"/>
</svg>
